<svg id="SvgjsSvg1006" width="764" height="797" xmlns="http://www.w3.org/2000/svg" version="1.1" xmlns:xlink="http://www.w3.org/1999/xlink" xmlns:svgjs="http://svgjs.com/svgjs"><defs id="SvgjsDefs1007"><pattern patternUnits="userSpaceOnUse" id="pattern_mark_0" width="300" height="300"><text x="150" y="100" fill="rgba(229,229,229,0.8)" font-size="18" transform="rotate(-45, 150, 150)" style="dominant-baseline: middle; text-anchor: middle;"></text></pattern><pattern patternUnits="userSpaceOnUse" id="pattern_mark_1" width="300" height="300"><text x="150" y="200" fill="rgba(229,229,229,0.8)" font-size="18" transform="rotate(-45, 150, 150)" style="dominant-baseline: middle; text-anchor: middle;"></text></pattern><marker id="SvgjsMarker1025" markerWidth="13" markerHeight="9" refX="9.5" refY="4.5" viewBox="0 0 13 9" orient="auto" markerUnits="userSpaceOnUse" stroke-dasharray="0,0"><path id="SvgjsPath1026" d="M0,0 L13,4.5 L0,9 L0,0" fill="#323232" stroke="#323232" stroke-width="1"></path></marker><marker id="SvgjsMarker1045" markerWidth="13" markerHeight="9" refX="9.5" refY="4.5" viewBox="0 0 13 9" orient="auto" markerUnits="userSpaceOnUse" stroke-dasharray="0,0"><path id="SvgjsPath1046" d="M0,0 L13,4.5 L0,9 L0,0" fill="#323232" stroke="#323232" stroke-width="1"></path></marker><marker id="SvgjsMarker1053" markerWidth="13" markerHeight="9" refX="9.5" refY="4.5" viewBox="0 0 13 9" orient="auto" markerUnits="userSpaceOnUse" stroke-dasharray="0,0"><path id="SvgjsPath1054" d="M0,0 L13,4.5 L0,9 L0,0" fill="#323232" stroke="#323232" stroke-width="1"></path></marker><marker id="SvgjsMarker1087" markerWidth="13" markerHeight="9" refX="9.5" refY="4.5" viewBox="0 0 13 9" orient="auto" markerUnits="userSpaceOnUse" stroke-dasharray="0,0"><path id="SvgjsPath1088" d="M0,0 L13,4.5 L0,9 L0,0" fill="#323232" stroke="#323232" stroke-width="1"></path></marker><marker id="SvgjsMarker1095" markerWidth="13" markerHeight="9" refX="9.5" refY="4.5" viewBox="0 0 13 9" orient="auto" markerUnits="userSpaceOnUse" stroke-dasharray="0,0"><path id="SvgjsPath1096" d="M0,0 L13,4.5 L0,9 L0,0" fill="#323232" stroke="#323232" stroke-width="1"></path></marker><marker id="SvgjsMarker1103" markerWidth="13" markerHeight="9" refX="9.5" refY="4.5" viewBox="0 0 13 9" orient="auto" markerUnits="userSpaceOnUse" stroke-dasharray="0,0"><path id="SvgjsPath1104" d="M0,0 L13,4.5 L0,9 L0,0" fill="#323232" stroke="#323232" stroke-width="1"></path></marker><marker id="SvgjsMarker1125" markerWidth="13" markerHeight="9" refX="9.5" refY="4.5" viewBox="0 0 13 9" orient="auto" markerUnits="userSpaceOnUse" stroke-dasharray="0,0"><path id="SvgjsPath1126" d="M0,0 L13,4.5 L0,9 L0,0" fill="#323232" stroke="#323232" stroke-width="1"></path></marker><marker id="SvgjsMarker1133" markerWidth="13" markerHeight="9" refX="9.5" refY="4.5" viewBox="0 0 13 9" orient="auto" markerUnits="userSpaceOnUse" stroke-dasharray="0,0"><path id="SvgjsPath1134" d="M0,0 L13,4.5 L0,9 L0,0" fill="#323232" stroke="#323232" stroke-width="1"></path></marker><marker id="SvgjsMarker1147" markerWidth="13" markerHeight="9" refX="9.5" refY="4.5" viewBox="0 0 13 9" orient="auto" markerUnits="userSpaceOnUse" stroke-dasharray="0,0"><path id="SvgjsPath1148" d="M0,0 L13,4.5 L0,9 L0,0" fill="#323232" stroke="#323232" stroke-width="1"></path></marker><marker id="SvgjsMarker1167" markerWidth="13" markerHeight="9" refX="9.5" refY="4.5" viewBox="0 0 13 9" orient="auto" markerUnits="userSpaceOnUse" stroke-dasharray="0,0"><path id="SvgjsPath1168" d="M0,0 L13,4.5 L0,9 L0,0" fill="#b0e38f" stroke="#b0e38f" stroke-width="1"></path></marker><marker id="SvgjsMarker1175" markerWidth="13" markerHeight="9" refX="9.5" refY="4.5" viewBox="0 0 13 9" orient="auto" markerUnits="userSpaceOnUse" stroke-dasharray="0,0"><path id="SvgjsPath1176" d="M0,0 L13,4.5 L0,9 L0,0" fill="#b0e38f" stroke="#b0e38f" stroke-width="1"></path></marker><marker id="SvgjsMarker1183" markerWidth="13" markerHeight="9" refX="9.5" refY="4.5" viewBox="0 0 13 9" orient="auto" markerUnits="userSpaceOnUse" stroke-dasharray="0,0"><path id="SvgjsPath1184" d="M0,0 L13,4.5 L0,9 L0,0" fill="#323232" stroke="#323232" stroke-width="1"></path></marker><marker id="SvgjsMarker1191" markerWidth="13" markerHeight="9" refX="9.5" refY="4.5" viewBox="0 0 13 9" orient="auto" markerUnits="userSpaceOnUse" stroke-dasharray="0,0"><path id="SvgjsPath1192" d="M0,0 L13,4.5 L0,9 L0,0" fill="#323232" stroke="#323232" stroke-width="1"></path></marker></defs><rect id="svgbackgroundid" width="764" height="797" fill="transparent"></rect><rect id="SvgjsRect1009" width="764" height="797" fill="url(#pattern_mark_0)"></rect><rect id="SvgjsRect1010" width="764" height="797" fill="url(#pattern_mark_1)"></rect><g id="SvgjsG1011" transform="translate(141.99999999999994,281)"><path id="SvgjsPath1012" d="M 0 0L 96 0L 96 54L 0 54Z" stroke="rgba(33,41,48,1)" stroke-width="1.5" fill-opacity="1" fill="#f2f2f2"></path><g id="SvgjsG1013"><text id="SvgjsText1014" font-family="微软雅黑" text-anchor="middle" font-size="13px" width="76px" fill="#323232" font-weight="400" align="middle" lineHeight="125%" anchor="middle" family="微软雅黑" size="13px" weight="400" font-style="" opacity="1" y="16.375" transform="rotate(0)"><tspan id="SvgjsTspan1015" dy="16.25" x="48"><tspan id="SvgjsTspan1016" style="">proxy1</tspan></tspan></text></g></g><g id="SvgjsG1017"><path id="SvgjsPath1018" d="M36 395L382.5 395L382.5 395L729 395" stroke="#323232" stroke-width="1.5" fill="none"></path></g><g id="SvgjsG1019" transform="translate(387,493)"><path id="SvgjsPath1020" d="M 0 0L 96 0L 96 54L 0 54Z" stroke="rgba(33,41,48,1)" stroke-width="1.5" fill-opacity="1" fill="#ffffff"></path><g id="SvgjsG1021"><text id="SvgjsText1022" font-family="微软雅黑" text-anchor="middle" font-size="13px" width="76px" fill="#323232" font-weight="400" align="middle" lineHeight="125%" anchor="middle" family="微软雅黑" size="13px" weight="400" font-style="" opacity="1" y="16.375" transform="rotate(0)"></text></g></g><g id="SvgjsG1023"><path id="SvgjsPath1024" d="M386.2503419824572 510.9773536595943C 281.33259726859944 511 189.99999999999997 440.66740273140056 190.10621379870426 337.6979100483457" stroke="#323232" stroke-width="1.5" fill="none" marker-end="url(#SvgjsMarker1025)"></path><rect id="SvgjsRect1027" width="23" height="16" x="201.09705145024716" y="412.5400962999392" fill="#ffffff"></rect><text id="SvgjsText1028" font-family="微软雅黑" text-anchor="middle" font-size="13px" width="23px" fill="#323232" font-weight="400" align="top" lineHeight="16px" anchor="middle" family="微软雅黑" size="13px" weight="400" font-style="" opacity="1" y="409.9150962999392" transform="rotate(0)"><tspan id="SvgjsTspan1029" dy="16.25" x="212.59705145024716"><tspan id="SvgjsTspan1030" style="">500</tspan></tspan></text></g><g id="SvgjsG1031" transform="translate(301.3333333333333,281)"><path id="SvgjsPath1032" d="M 0 0L 96 0L 96 54L 0 54Z" stroke="rgba(33,41,48,1)" stroke-width="1.5" fill-opacity="1" fill="#fadcdb"></path><g id="SvgjsG1033"><text id="SvgjsText1034" font-family="微软雅黑" text-anchor="middle" font-size="13px" width="76px" fill="#323232" font-weight="400" align="middle" lineHeight="125%" anchor="middle" family="微软雅黑" size="13px" weight="400" font-style="" opacity="1" y="16.375" transform="rotate(0)"><tspan id="SvgjsTspan1035" dy="16.25" x="48"><tspan id="SvgjsTspan1036" style="">proxy2</tspan></tspan></text></g></g><g id="SvgjsG1037" transform="translate(460.6666666666667,281)"><path id="SvgjsPath1038" d="M 0 0L 96 0L 96 54L 0 54Z" stroke="rgba(33,41,48,1)" stroke-width="1.5" fill-opacity="1" fill="#fcf9ea"></path><g id="SvgjsG1039"><text id="SvgjsText1040" font-family="微软雅黑" text-anchor="middle" font-size="13px" width="76px" fill="#323232" font-weight="400" align="middle" lineHeight="125%" anchor="middle" family="微软雅黑" size="13px" weight="400" font-style="" opacity="1" y="16.375" transform="rotate(0)"><tspan id="SvgjsTspan1041" dy="16.25" x="48"><tspan id="SvgjsTspan1042" style="">proxy3</tspan></tspan></text></g></g><g id="SvgjsG1043"><path id="SvgjsPath1044" d="M434.9401027616812 492.25239561207695C 435 421.10810585021113 349.3333333333333 406.89189414978887 349.54896339128106 337.69137579652295" stroke="#323232" stroke-width="1.5" fill="none" marker-end="url(#SvgjsMarker1045)"></path><rect id="SvgjsRect1047" width="29" height="16" x="382.807258241919" y="411.31811581555655" fill="#ffffff"></rect><text id="SvgjsText1048" font-family="微软雅黑" text-anchor="middle" font-size="13px" width="29px" fill="#323232" font-weight="400" align="top" lineHeight="16px" anchor="middle" family="微软雅黑" size="13px" weight="400" font-style="" opacity="1" y="408.69311581555655" transform="rotate(0)"><tspan id="SvgjsTspan1049" dy="16.25" x="397.307258241919"><tspan id="SvgjsTspan1050" style="">1000</tspan></tspan></text></g><g id="SvgjsG1051"><path id="SvgjsPath1052" d="M435.0508788412361 492.25172776109594C 435 424.4044381092252 501.66666666666674 403.5955618907748 501.48350283821674 337.69378006005456" stroke-dasharray="8,5" stroke="#323232" stroke-width="1.5" fill="none" marker-end="url(#SvgjsMarker1053)"></path><rect id="SvgjsRect1055" width="41" height="16" x="443.832049818117" y="411.51475881841816" fill="#ffffff"></rect><text id="SvgjsText1056" font-family="微软雅黑" text-anchor="middle" font-size="13px" width="41px" fill="#323232" font-weight="400" align="top" lineHeight="16px" anchor="middle" family="微软雅黑" size="13px" weight="400" font-style="" opacity="1" y="408.88975881841816" transform="rotate(0)"><tspan id="SvgjsTspan1057" dy="16.25" x="464.332049818117"><tspan id="SvgjsTspan1058" style="">broken</tspan></tspan></text></g><g id="SvgjsG1059" transform="translate(30,288)"><path id="SvgjsPath1060" d="M 0 0L 100 0L 100 40L 0 40Z" stroke="none" fill="none"></path><g id="SvgjsG1061"><text id="SvgjsText1062" font-family="微软雅黑" text-anchor="middle" font-size="13px" width="100px" fill="#323232" font-weight="400" align="middle" lineHeight="125%" anchor="middle" family="微软雅黑" size="13px" weight="400" font-style="" opacity="1" y="9.375" transform="rotate(0)"><tspan id="SvgjsTspan1063" dy="16.25" x="50"><tspan id="SvgjsTspan1064" style="">IP供应商</tspan></tspan></text></g></g><g id="SvgjsG1065" transform="translate(46,692)"><path id="SvgjsPath1066" d="M 0 0L 100 0L 100 40L 0 40Z" stroke="none" fill="none"></path><g id="SvgjsG1067"><text id="SvgjsText1068" font-family="微软雅黑" text-anchor="middle" font-size="13px" width="100px" fill="#323232" font-weight="400" align="middle" lineHeight="125%" anchor="middle" family="微软雅黑" size="13px" weight="400" font-style="" opacity="1" y="9.375" transform="rotate(0)"><tspan id="SvgjsTspan1069" dy="16.25" x="50"><tspan id="SvgjsTspan1070" style="">业务机器</tspan></tspan></text></g></g><g id="SvgjsG1071" transform="translate(291,732)"><path id="SvgjsPath1072" d="M 0 0L 272 0L 288 16L 288 40L 0 40L 0 0Z" stroke="none" fill-opacity="1" fill="#fff7bc"></path><path id="SvgjsPath1073" d="M 272 0L 272 16L 288 16Z" stroke="none" fill-opacity="1" fill="#e4d089"></path><path id="SvgjsPath1074" d="M 0 0L 272 0L 288 16L 288 40L 0 40L 0 0Z" stroke="none" fill="none"></path><g id="SvgjsG1075"><text id="SvgjsText1076" font-family="微软雅黑" text-anchor="middle" font-size="13px" width="268px" fill="#323232" font-weight="400" align="middle" lineHeight="125%" anchor="middle" family="微软雅黑" size="13px" weight="400" font-style="" opacity="1" y="9.375" transform="rotate(0)"><tspan id="SvgjsTspan1077" dy="16.25" x="144"><tspan id="SvgjsTspan1078" style="">curl -x xxx.proxy.com www.baidu.com</tspan></tspan></text></g></g><g id="SvgjsG1079" transform="translate(365.5,25)"><path id="SvgjsPath1080" d="M 0 0L 139 0L 139 54L 0 54Z" stroke="rgba(33,41,48,1)" stroke-width="1.5" fill-opacity="1" fill="#ffffff"></path><g id="SvgjsG1081"><text id="SvgjsText1082" font-family="微软雅黑" text-anchor="middle" font-size="13px" width="119px" fill="#323232" font-weight="400" align="middle" lineHeight="125%" anchor="middle" family="微软雅黑" size="13px" weight="400" font-style="" opacity="1" y="16.375" transform="rotate(0)"><tspan id="SvgjsTspan1083" dy="16.25" x="69.5"><tspan id="SvgjsTspan1084" style="">www.baidu.com</tspan></tspan></text></g></g><g id="SvgjsG1085"><path id="SvgjsPath1086" d="M190.01624122204328 280.25017587214967C 190 165.5937610005421 250.0937610005421 52 362.80228894252696 52.11115327430056" stroke="#323232" stroke-width="1.5" fill="none" marker-end="url(#SvgjsMarker1087)"></path><rect id="SvgjsRect1089" width="29" height="16" x="191.52895336971147" y="172.38766006379245" fill="#ffffff"></rect><text id="SvgjsText1090" font-family="微软雅黑" text-anchor="middle" font-size="13px" width="29px" fill="#323232" font-weight="400" align="top" lineHeight="16px" anchor="middle" family="微软雅黑" size="13px" weight="400" font-style="" opacity="1" y="169.76266006379245" transform="rotate(0)"><tspan id="SvgjsTspan1091" dy="16.25" x="206.02895336971147"><tspan id="SvgjsTspan1092" style="">1000</tspan></tspan></text></g><g id="SvgjsG1093"><path id="SvgjsPath1094" d="M349.3733278034564 280.25106713093925C 349.33333333333337 193.23414989619 435 166.76585010381 434.85601990755686 81.69615832861871" stroke-dasharray="8,5" stroke="#323232" stroke-width="1.5" fill="none" marker-end="url(#SvgjsMarker1095)"></path><rect id="SvgjsRect1097" width="41" height="16" x="369.0877378294049" y="175.6208728467163" fill="#ffffff"></rect><text id="SvgjsText1098" font-family="微软雅黑" text-anchor="middle" font-size="13px" width="41px" fill="#323232" font-weight="400" align="top" lineHeight="16px" anchor="middle" family="微软雅黑" size="13px" weight="400" font-style="" opacity="1" y="172.9958728467163" transform="rotate(0)"><tspan id="SvgjsTspan1099" dy="16.25" x="389.5877378294049"><tspan id="SvgjsTspan1100" style="">broken</tspan></tspan></text></g><g id="SvgjsG1101"><path id="SvgjsPath1102" d="M508.6309366346261 280.25085157357813C 508.66666666666674 194.99462549093545 435 165.00537450906455 435.12862811534615 81.69693433511877" stroke="#323232" stroke-width="1.5" fill="none" marker-end="url(#SvgjsMarker1103)"></path><rect id="SvgjsRect1105" width="23" height="16" x="462.55135597885385" y="175.67365812275156" fill="#ffffff"></rect><text id="SvgjsText1106" font-family="微软雅黑" text-anchor="middle" font-size="13px" width="23px" fill="#323232" font-weight="400" align="top" lineHeight="16px" anchor="middle" family="微软雅黑" size="13px" weight="400" font-style="" opacity="1" y="173.04865812275156" transform="rotate(0)"><tspan id="SvgjsTspan1107" dy="16.25" x="474.05135597885385"><tspan id="SvgjsTspan1108" style="">200</tspan></tspan></text></g><g id="SvgjsG1109"><path id="SvgjsPath1110" d="M35 236L387 236L387 236L739 236" stroke="#323232" stroke-width="1.5" fill="none"></path></g><g id="SvgjsG1111" transform="translate(37,79)"><path id="SvgjsPath1112" d="M 0 0L 100 0L 100 40L 0 40Z" stroke="none" fill="none"></path><g id="SvgjsG1113"><text id="SvgjsText1114" font-family="微软雅黑" text-anchor="middle" font-size="13px" width="100px" fill="#323232" font-weight="400" align="middle" lineHeight="125%" anchor="middle" family="微软雅黑" size="13px" weight="400" font-style="" opacity="1" y="9.375" transform="rotate(0)"><tspan id="SvgjsTspan1115" dy="16.25" x="50"><tspan id="SvgjsTspan1116" style="">目标网站</tspan></tspan></text></g></g><g id="SvgjsG1117" transform="translate(620,281)"><path id="SvgjsPath1118" d="M 0 0L 96 0L 96 54L 0 54Z" stroke="rgba(33,41,48,1)" stroke-width="1.5" fill-opacity="1" fill="#fadded"></path><g id="SvgjsG1119"><text id="SvgjsText1120" font-family="微软雅黑" text-anchor="middle" font-size="13px" width="76px" fill="#323232" font-weight="400" align="middle" lineHeight="125%" anchor="middle" family="微软雅黑" size="13px" weight="400" font-style="" opacity="1" y="16.375" transform="rotate(0)"><tspan id="SvgjsTspan1121" dy="16.25" x="48"><tspan id="SvgjsTspan1122" style="">proxy4</tspan></tspan></text></g></g><g id="SvgjsG1123"><path id="SvgjsPath1124" d="M483.7495350632475 519.9735956639438C 587.6518036156091 519.9999999999999 668 439.651803615609 667.9049443901976 337.698326227691" stroke="#323232" stroke-width="1.5" fill="none" marker-end="url(#SvgjsMarker1125)"></path><rect id="SvgjsRect1127" width="23" height="16" x="638.8133695089426" y="408.96758103508665" fill="#ffffff"></rect><text id="SvgjsText1128" font-family="微软雅黑" text-anchor="middle" font-size="13px" width="23px" fill="#323232" font-weight="400" align="top" lineHeight="16px" anchor="middle" family="微软雅黑" size="13px" weight="400" font-style="" opacity="1" y="406.34258103508665" transform="rotate(0)"><tspan id="SvgjsTspan1129" dy="16.25" x="650.3133695089426"><tspan id="SvgjsTspan1130" style="">500</tspan></tspan></text></g><g id="SvgjsG1131"><path id="SvgjsPath1132" d="M667.9854926556975 280.2501403218193C 668 168.44903376691963 617.0509662330804 51.999999999999886 507.197329118924 52.12006508320263" stroke="#323232" stroke-width="1.5" fill="none" marker-end="url(#SvgjsMarker1133)"></path><rect id="SvgjsRect1135" width="23" height="16" x="642.5239844851673" y="173.64706377884198" fill="#ffffff"></rect><text id="SvgjsText1136" font-family="微软雅黑" text-anchor="middle" font-size="13px" width="23px" fill="#323232" font-weight="400" align="top" lineHeight="16px" anchor="middle" family="微软雅黑" size="13px" weight="400" font-style="" opacity="1" y="171.02206377884198" transform="rotate(0)"><tspan id="SvgjsTspan1137" dy="16.25" x="654.0239844851673"><tspan id="SvgjsTspan1138" style="">500</tspan></tspan></text></g><g id="SvgjsG1139"><path id="SvgjsPath1140" d="M25 631L368.5 631L368.5 631L712 631" stroke="#323232" stroke-width="1.5" fill="none"></path></g><g id="SvgjsG1141" transform="translate(387,657)"><path id="SvgjsPath1142" d="M 0 0L 96 0L 96 54L 0 54Z" stroke="rgba(33,41,48,1)" stroke-width="1.5" fill-opacity="1" fill="#ffffff"></path><g id="SvgjsG1143"><text id="SvgjsText1144" font-family="微软雅黑" text-anchor="middle" font-size="13px" width="76px" fill="#323232" font-weight="400" align="middle" lineHeight="125%" anchor="middle" family="微软雅黑" size="13px" weight="400" font-style="" opacity="1" y="16.375" transform="rotate(0)"></text></g></g><g id="SvgjsG1145"><path id="SvgjsPath1146" d="M435 656.25L435 549.7" stroke="#323232" stroke-width="1.5" fill="none" marker-end="url(#SvgjsMarker1147)"></path><rect id="SvgjsRect1149" width="16" height="16" x="427" y="590.5687969924812" fill="#ffffff"></rect><text id="SvgjsText1150" font-family="微软雅黑" text-anchor="middle" font-size="13px" width="16px" fill="#323232" font-weight="400" align="top" lineHeight="16px" anchor="middle" family="微软雅黑" size="13px" weight="400" font-style="" opacity="1" y="587.9437969924812" transform="rotate(0)"><tspan id="SvgjsTspan1151" dy="16.25" x="435"><tspan id="SvgjsTspan1152" style="">50</tspan></tspan></text></g><g id="SvgjsG1153" transform="translate(141.99999999999994,527)"><path id="SvgjsPath1154" d="M 0 0L 96 0L 96 54L 0 54Z" stroke="rgba(33,41,48,1)" stroke-width="1.5" fill-opacity="1" fill="#f2f2f2"></path><g id="SvgjsG1155"><text id="SvgjsText1156" font-family="微软雅黑" text-anchor="middle" font-size="13px" width="76px" fill="#323232" font-weight="400" align="middle" lineHeight="125%" anchor="middle" family="微软雅黑" size="13px" weight="400" font-style="" opacity="1" y="16.375" transform="rotate(0)"><tspan id="SvgjsTspan1157" dy="16.25" x="48"><tspan id="SvgjsTspan1158" style="">proxy1</tspan></tspan></text></g></g><g id="SvgjsG1159" transform="translate(620,527)"><path id="SvgjsPath1160" d="M 0 0L 96 0L 96 54L 0 54Z" stroke="rgba(33,41,48,1)" stroke-width="1.5" fill-opacity="1" fill="#fadded"></path><g id="SvgjsG1161"><text id="SvgjsText1162" font-family="微软雅黑" text-anchor="middle" font-size="13px" width="76px" fill="#323232" font-weight="400" align="middle" lineHeight="125%" anchor="middle" family="微软雅黑" size="13px" weight="400" font-style="" opacity="1" y="16.375" transform="rotate(0)"><tspan id="SvgjsTspan1163" dy="16.25" x="48"><tspan id="SvgjsTspan1164" style="">proxy4</tspan></tspan></text></g></g><g id="SvgjsG1165"><path id="SvgjsPath1166" d="M189.99999999999994 526.25L189.99999999999994 337.7" stroke="#b0e38f" stroke-width="1.5" fill="none" marker-end="url(#SvgjsMarker1167)"></path><rect id="SvgjsRect1169" width="21" height="16" x="179.49999999999994" y="472.70652173913044" fill="#ffffff"></rect><text id="SvgjsText1170" font-family="微软雅黑" text-anchor="middle" font-size="13px" width="21px" fill="#323232" font-weight="400" align="top" lineHeight="16px" anchor="middle" family="微软雅黑" size="13px" weight="400" font-style="" opacity="1" y="470.08152173913044" transform="rotate(0)"><tspan id="SvgjsTspan1171" dy="16.25" x="189.99999999999994"><tspan id="SvgjsTspan1172" style="">100</tspan></tspan></text></g><g id="SvgjsG1173"><path id="SvgjsPath1174" d="M668 526.25L668 337.7" stroke="#b0e38f" stroke-width="1.5" fill="none" marker-end="url(#SvgjsMarker1175)"></path><rect id="SvgjsRect1177" width="21" height="16" x="657.5" y="454.4891304347826" fill="#ffffff"></rect><text id="SvgjsText1178" font-family="微软雅黑" text-anchor="middle" font-size="13px" width="21px" fill="#323232" font-weight="400" align="top" lineHeight="16px" anchor="middle" family="微软雅黑" size="13px" weight="400" font-style="" opacity="1" y="451.8641304347826" transform="rotate(0)"><tspan id="SvgjsTspan1179" dy="16.25" x="668"><tspan id="SvgjsTspan1180" style="">100</tspan></tspan></text></g><g id="SvgjsG1181"><path id="SvgjsPath1182" d="M386.25005458674605 690.9909514012469C 296.7479086114898 691 189.99999999999997 671.2520913885103 190.17312629365242 583.6944437805317" stroke-dasharray="10,5,3,5" stroke="#323232" stroke-width="1.5" fill="none" marker-end="url(#SvgjsMarker1183)"></path><rect id="SvgjsRect1185" width="26" height="16" x="255.66790744204786" y="667.4347266402123" fill="#ffffff"></rect><text id="SvgjsText1186" font-family="微软雅黑" text-anchor="middle" font-size="13px" width="26px" fill="#323232" font-weight="400" align="top" lineHeight="16px" anchor="middle" family="微软雅黑" size="13px" weight="400" font-style="" opacity="1" y="664.8097266402123" transform="rotate(0)"><tspan id="SvgjsTspan1187" dy="16.25" x="268.66790744204786"><tspan id="SvgjsTspan1188" style="">1150</tspan></tspan></text></g><g id="SvgjsG1189"><path id="SvgjsPath1190" d="M483.7499391304702 683.9904448657976C 567.6961628410638 683.9999999999999 668 665.6961628410638 667.8150530712433 583.6936582250804" stroke-dasharray="10,5,3,5" stroke="#323232" stroke-width="1.5" fill="none" marker-end="url(#SvgjsMarker1191)"></path></g><g id="SvgjsG1193" transform="translate(254,437)"><path id="SvgjsPath1194" d="M 0 0L 52 0L 68 16L 68 48L 0 48L 0 0Z" stroke="none" fill-opacity="1" fill="#fff7bc"></path><path id="SvgjsPath1195" d="M 52 0L 52 16L 68 16Z" stroke="none" fill-opacity="1" fill="#e4d089"></path><path id="SvgjsPath1196" d="M 0 0L 52 0L 68 16L 68 48L 0 48L 0 0Z" stroke="none" fill="none"></path><g id="SvgjsG1197"><text id="SvgjsText1198" font-family="微软雅黑" text-anchor="middle" font-size="13px" width="48px" fill="#323232" font-weight="400" align="middle" lineHeight="125%" anchor="middle" family="微软雅黑" size="13px" weight="400" font-style="" opacity="1" y="13.375" transform="rotate(0)"><tspan id="SvgjsTspan1199" dy="16.25" x="34"><tspan id="SvgjsTspan1200" style="">1500ms</tspan></tspan></text></g></g><g id="SvgjsG1201" transform="translate(539,445)"><path id="SvgjsPath1202" d="M 0 0L 52 0L 68 16L 68 48L 0 48L 0 0Z" stroke="none" fill-opacity="1" fill="#fff7bc"></path><path id="SvgjsPath1203" d="M 52 0L 52 16L 68 16Z" stroke="none" fill-opacity="1" fill="#e4d089"></path><path id="SvgjsPath1204" d="M 0 0L 52 0L 68 16L 68 48L 0 48L 0 0Z" stroke="none" fill="none"></path><g id="SvgjsG1205"><text id="SvgjsText1206" font-family="微软雅黑" text-anchor="middle" font-size="13px" width="48px" fill="#323232" font-weight="400" align="middle" lineHeight="125%" anchor="middle" family="微软雅黑" size="13px" weight="400" font-style="" opacity="1" y="13.375" transform="rotate(0)"><tspan id="SvgjsTspan1207" dy="16.25" x="34"><tspan id="SvgjsTspan1208" style="">1000ms</tspan></tspan></text></g></g><g id="SvgjsG1209" transform="translate(242,660)"><path id="SvgjsPath1210" d="M 0 0L 52 0L 68 16L 68 48L 0 48L 0 0Z" stroke="none" fill-opacity="1" fill="#fff7bc"></path><path id="SvgjsPath1211" d="M 52 0L 52 16L 68 16Z" stroke="none" fill-opacity="1" fill="#e4d089"></path><path id="SvgjsPath1212" d="M 0 0L 52 0L 68 16L 68 48L 0 48L 0 0Z" stroke="none" fill="none"></path><g id="SvgjsG1213"><text id="SvgjsText1214" font-family="微软雅黑" text-anchor="middle" font-size="13px" width="48px" fill="#323232" font-weight="400" align="middle" lineHeight="125%" anchor="middle" family="微软雅黑" size="13px" weight="400" font-style="" opacity="1" y="13.375" transform="rotate(0)"><tspan id="SvgjsTspan1215" dy="16.25" x="34"><tspan id="SvgjsTspan1216" style="">1150ms</tspan></tspan></text></g></g><g id="SvgjsG1217" transform="translate(539,657)"><path id="SvgjsPath1218" d="M 0 0L 52 0L 68 16L 68 48L 0 48L 0 0Z" stroke="none" fill-opacity="1" fill="#fff7bc"></path><path id="SvgjsPath1219" d="M 52 0L 52 16L 68 16Z" stroke="none" fill-opacity="1" fill="#e4d089"></path><path id="SvgjsPath1220" d="M 0 0L 52 0L 68 16L 68 48L 0 48L 0 0Z" stroke="none" fill="none"></path><g id="SvgjsG1221"><text id="SvgjsText1222" font-family="微软雅黑" text-anchor="middle" font-size="13px" width="48px" fill="#323232" font-weight="400" align="middle" lineHeight="125%" anchor="middle" family="微软雅黑" size="13px" weight="400" font-style="" opacity="1" y="13.375" transform="rotate(0)"><tspan id="SvgjsTspan1223" dy="16.25" x="34"><tspan id="SvgjsTspan1224" style="">650ms</tspan></tspan></text></g></g><g id="SvgjsG1225" transform="translate(30,475)"><path id="SvgjsPath1226" d="M 0 0L 100 0L 100 40L 0 40Z" stroke="none" fill="none"></path><g id="SvgjsG1227"><text id="SvgjsText1228" font-family="微软雅黑" text-anchor="middle" font-size="13px" width="100px" fill="#323232" font-weight="400" align="middle" lineHeight="125%" anchor="middle" family="微软雅黑" size="13px" weight="400" font-style="" opacity="1" y="9.375" transform="rotate(0)"><tspan id="SvgjsTspan1229" dy="16.25" x="50"><tspan id="SvgjsTspan1230" style="">代理网关</tspan></tspan></text></g></g></svg>